<svg version="1.1" viewBox="0 0 96 96" xmlns="http://www.w3.org/2000/svg" xmlns:xlink="http://www.w3.org/1999/xlink" id="Icons" overflow="hidden"><style>
.MsftOfcThm_Background1_Fill {
 fill:#FFFFFF; 
}
</style>
<path d=" M 48 10 C 27 10 10 27 10 48 C 10 69 27 86 48 86 C 69 86 86 69 86 48 C 86 27 69 10 48 10 Z M 22 48 C 22 43 23.4 38.3 25.9 34.4 L 61.7 70.2 C 57.7 72.6 53 74 48 74 C 33.7 74 22 62.3 22 48 Z M 70.1 61.6 L 34.4 25.9 C 38.3 23.4 43 22 48 22 C 62.3 22 74 33.7 74 48 C 74 53 72.6 57.7 70.1 61.6 Z" stroke="none" stroke-width="1" stroke-linecap="butt" stroke-dasharray="" stroke-dashoffset="1" fill="#FFFFFF" fill-opacity="1"/></svg>