<svg version="1.1" viewBox="0 0 96 96" xmlns="http://www.w3.org/2000/svg" xmlns:xlink="http://www.w3.org/1999/xlink" id="Icons" overflow="hidden"><style>
.MsftOfcThm_Background1_Fill {
 fill:#FFFFFF; 
}
</style>
<path d=" M 61.9 62.4 C 69.7 54.9 70.1 42.5 62.7 34.5 C 70.6 38.6 77.1 44.9 80.9 49.1 C 76.9 53 70.1 58.8 61.9 62.4 Z M 22.6 41.8 C 25.9 39 29.4 36.6 33.2 34.6 C 25.9 42.6 26.3 54.9 34.1 62.4 C 25.9 58.8 19 53 15.1 49.1 C 17.4 46.5 19.9 44.1 22.6 41.8 L 22.6 41.8 Z M 48 64 C 39.2 64 32 56.8 32 48 C 32 39.2 39.2 32 48 32 C 56.8 32 64 39.2 64 48 C 64 56.8 56.8 64 48 64 Z M 86.9 46.3 C 81.1 39.5 65.9 24 48 24 C 30.1 24 14.9 39.5 9.1 46.3 C 7.6 48.1 7.7 50.6 9.3 52.3 C 15.2 58.5 30.3 72 48 72 C 65.7 72 80.8 58.5 86.8 52.3 C 88.3 50.7 88.4 48.1 86.9 46.3 Z" stroke="none" stroke-width="1" stroke-linecap="butt" stroke-dasharray="" stroke-dashoffset="1" fill="#FFFFFF" fill-opacity="1"/><circle cx="48" cy="48" r="10" stroke="none" stroke-width="1" stroke-linecap="butt" stroke-dasharray="" stroke-dashoffset="1" fill="#FFFFFF" fill-opacity="1"/></svg>