<svg class="lds-spinner" width="200px"  height="200px"  xmlns="http://www.w3.org/2000/svg" xmlns:xlink="http://www.w3.org/1999/xlink" viewBox="0 0 100 100" preserveAspectRatio="xMidYMid" style="background: rgba(0, 0, 0, 0) none repeat scroll 0% 0%;"><g transform="rotate(0 50 50)">
  <rect x="45" y="3" rx="45" ry="3" width="10" height="30" fill="#e50914">
    <animate attributeName="opacity" values="1;0" times="0;1" dur="1.9s" begin="-1.788235294117647s" repeatCount="indefinite"></animate>
  </rect>
</g><g transform="rotate(21.176470588235293 50 50)">
  <rect x="45" y="3" rx="45" ry="3" width="10" height="30" fill="#e50914">
    <animate attributeName="opacity" values="1;0" times="0;1" dur="1.9s" begin="-1.6764705882352942s" repeatCount="indefinite"></animate>
  </rect>
</g><g transform="rotate(42.35294117647059 50 50)">
  <rect x="45" y="3" rx="45" ry="3" width="10" height="30" fill="#e50914">
    <animate attributeName="opacity" values="1;0" times="0;1" dur="1.9s" begin="-1.564705882352941s" repeatCount="indefinite"></animate>
  </rect>
</g><g transform="rotate(63.529411764705884 50 50)">
  <rect x="45" y="3" rx="45" ry="3" width="10" height="30" fill="#e50914">
    <animate attributeName="opacity" values="1;0" times="0;1" dur="1.9s" begin="-1.4529411764705882s" repeatCount="indefinite"></animate>
  </rect>
</g><g transform="rotate(84.70588235294117 50 50)">
  <rect x="45" y="3" rx="45" ry="3" width="10" height="30" fill="#e50914">
    <animate attributeName="opacity" values="1;0" times="0;1" dur="1.9s" begin="-1.3411764705882352s" repeatCount="indefinite"></animate>
  </rect>
</g><g transform="rotate(105.88235294117646 50 50)">
  <rect x="45" y="3" rx="45" ry="3" width="10" height="30" fill="#e50914">
    <animate attributeName="opacity" values="1;0" times="0;1" dur="1.9s" begin="-1.2294117647058822s" repeatCount="indefinite"></animate>
  </rect>
</g><g transform="rotate(127.05882352941177 50 50)">
  <rect x="45" y="3" rx="45" ry="3" width="10" height="30" fill="#e50914">
    <animate attributeName="opacity" values="1;0" times="0;1" dur="1.9s" begin="-1.1176470588235294s" repeatCount="indefinite"></animate>
  </rect>
</g><g transform="rotate(148.23529411764707 50 50)">
  <rect x="45" y="3" rx="45" ry="3" width="10" height="30" fill="#e50914">
    <animate attributeName="opacity" values="1;0" times="0;1" dur="1.9s" begin="-1.0058823529411764s" repeatCount="indefinite"></animate>
  </rect>
</g><g transform="rotate(169.41176470588235 50 50)">
  <rect x="45" y="3" rx="45" ry="3" width="10" height="30" fill="#e50914">
    <animate attributeName="opacity" values="1;0" times="0;1" dur="1.9s" begin="-0.8941176470588235s" repeatCount="indefinite"></animate>
  </rect>
</g><g transform="rotate(190.58823529411765 50 50)">
  <rect x="45" y="3" rx="45" ry="3" width="10" height="30" fill="#e50914">
    <animate attributeName="opacity" values="1;0" times="0;1" dur="1.9s" begin="-0.7823529411764705s" repeatCount="indefinite"></animate>
  </rect>
</g><g transform="rotate(211.76470588235293 50 50)">
  <rect x="45" y="3" rx="45" ry="3" width="10" height="30" fill="#e50914">
    <animate attributeName="opacity" values="1;0" times="0;1" dur="1.9s" begin="-0.6705882352941176s" repeatCount="indefinite"></animate>
  </rect>
</g><g transform="rotate(232.94117647058823 50 50)">
  <rect x="45" y="3" rx="45" ry="3" width="10" height="30" fill="#e50914">
    <animate attributeName="opacity" values="1;0" times="0;1" dur="1.9s" begin="-0.5588235294117647s" repeatCount="indefinite"></animate>
  </rect>
</g><g transform="rotate(254.11764705882354 50 50)">
  <rect x="45" y="3" rx="45" ry="3" width="10" height="30" fill="#e50914">
    <animate attributeName="opacity" values="1;0" times="0;1" dur="1.9s" begin="-0.44705882352941173s" repeatCount="indefinite"></animate>
  </rect>
</g><g transform="rotate(275.29411764705884 50 50)">
  <rect x="45" y="3" rx="45" ry="3" width="10" height="30" fill="#e50914">
    <animate attributeName="opacity" values="1;0" times="0;1" dur="1.9s" begin="-0.3352941176470588s" repeatCount="indefinite"></animate>
  </rect>
</g><g transform="rotate(296.47058823529414 50 50)">
  <rect x="45" y="3" rx="45" ry="3" width="10" height="30" fill="#e50914">
    <animate attributeName="opacity" values="1;0" times="0;1" dur="1.9s" begin="-0.22352941176470587s" repeatCount="indefinite"></animate>
  </rect>
</g><g transform="rotate(317.6470588235294 50 50)">
  <rect x="45" y="3" rx="45" ry="3" width="10" height="30" fill="#e50914">
    <animate attributeName="opacity" values="1;0" times="0;1" dur="1.9s" begin="-0.11176470588235293s" repeatCount="indefinite"></animate>
  </rect>
</g><g transform="rotate(338.8235294117647 50 50)">
  <rect x="45" y="3" rx="45" ry="3" width="10" height="30" fill="#e50914">
    <animate attributeName="opacity" values="1;0" times="0;1" dur="1.9s" begin="0s" repeatCount="indefinite"></animate>
  </rect>
</g></svg>