<svg version="1.1" viewBox="0 0 96 96" xmlns="http://www.w3.org/2000/svg" xmlns:xlink="http://www.w3.org/1999/xlink" id="Icons" overflow="hidden"><style>
.MsftOfcThm_Background1_Fill {
 fill:#FFFFFF; 
}
</style>
<path d=" M 47.1 81.1 L 61.4 66.8 L 81.7 83.3 C 82.1 83.7 82.8 83.6 83.2 83.2 C 83.6 82.8 83.6 82.2 83.3 81.7 L 66.8 61.5 L 81.1 47.2 C 82.2 46.1 82.5 44.5 82 43 C 81.5 41.5 80.1 40.5 78.6 40.4 C 74.6 40 69.7 41.3 64.7 44 L 43.5 27 C 45.3 23.5 46.1 19.6 45.8 15.7 C 45.4 12.9 41.9 11.4 40 13.3 L 13.3 40 C 11.4 41.9 12.9 45.4 15.7 45.8 C 19.6 46.1 23.5 45.4 27 43.5 L 44 64.7 C 41.3 69.7 40.1 74.6 40.4 78.6 C 40.5 80.1 41.5 81.5 43 82 C 44.4 82.6 46 82.2 47.1 81.1 Z" stroke="none" stroke-width="1" stroke-linecap="butt" stroke-dasharray="" stroke-dashoffset="1" fill="#FFFFFF" fill-opacity="1"/></svg>